<svg width="558" height="336" viewBox="0 0 558 336" fill="none" xmlns="http://www.w3.org/2000/svg">
<path d="M558 247.166L52.8568 309.933L41.1443 214.731L45.6491 214.13C61.2659 212.328 72.3778 197.913 70.2756 182.296C68.4736 166.679 54.0581 155.567 38.4413 157.67L33.9365 158.27L21.9236 63.0678L527.367 0L539.08 95.2024L534.575 95.803C518.958 97.6049 507.846 112.02 509.948 127.637C511.75 143.254 526.166 154.366 541.783 152.264L546.287 151.663L558 247.166ZM60.3649 300.023L548.089 239.357L538.479 161.574C519.859 161.574 503.641 147.759 501.239 128.838C498.836 109.918 511.15 92.4994 529.469 87.9946L519.859 10.211L31.8343 70.8762L41.7449 148.66C60.3649 148.66 76.5824 162.475 78.9849 181.395C81.3875 200.315 69.0743 217.734 50.7546 222.239L60.3649 300.023Z" fill="white"/>
<path d="M131.842 110.218L133.944 127.938L136.947 127.637L137.848 135.746L121.331 137.848L120.43 129.74L124.334 129.139L121.931 109.017L118.027 109.618L117.126 101.509L136.947 99.1066C138.449 98.8063 139.35 99.4069 139.951 100.909L145.356 117.426H145.957L147.158 100.008C147.158 98.2056 148.059 97.605 149.561 97.605L169.082 95.2024L169.983 103.311L166.079 103.912L168.481 124.033L172.385 123.433L173.286 131.541L155.868 133.644L154.967 125.535L157.97 125.235L155.868 107.516H155.267L152.564 132.142C152.264 133.644 151.963 134.244 150.462 134.545L143.855 135.446C142.353 135.746 141.752 135.145 141.152 133.644L132.743 110.519L131.842 110.218Z" fill="white"/>
<path d="M175.989 102.41L172.986 102.71L172.085 94.6017L190.405 92.1991L191.306 100.308L188.002 100.608L192.807 106.314H193.108L196.711 99.4069L193.408 99.7072L192.507 91.5985L209.926 89.4962L210.827 97.605L207.823 97.9053L198.814 113.522L199.414 119.228L203.619 118.628L204.52 126.736L185.9 130.04L184.999 121.931L188.903 121.33L188.302 115.624L175.989 102.41Z" fill="white"/>
<path d="M259.179 118.928C258.278 120.129 256.476 121.03 253.773 121.33L239.057 123.132C235.754 123.433 233.952 123.433 232.45 122.231C230.648 121.03 229.747 118.327 229.147 112.021L239.057 110.819C239.358 113.522 239.658 114.423 239.958 114.423C240.258 114.723 240.859 114.723 242.361 114.423L247.466 113.822C248.968 113.522 249.869 113.522 249.869 113.222C250.169 112.921 250.169 112.321 249.869 110.819C249.869 109.918 249.569 109.017 249.268 109.017C248.968 108.717 248.067 108.717 246.565 108.717H236.054C233.651 108.717 232.15 108.417 230.949 107.215C229.447 106.014 228.246 103.611 227.645 98.506C227.044 94.0012 227.645 90.6976 229.147 88.8956C230.048 87.6944 231.85 86.7934 234.552 86.4931L248.067 84.6911C251.371 84.3908 253.473 84.6911 254.674 85.5921C256.476 87.0937 257.377 89.196 258.278 95.5028L248.367 96.704C248.067 94.3015 247.767 93.7008 247.466 93.4005C247.166 93.1002 246.565 93.1002 245.364 93.4005L240.258 94.3015C239.057 94.6018 238.456 94.6018 238.156 94.9021C237.856 95.2024 237.856 95.8031 238.156 97.0044C238.156 98.2057 238.456 98.8063 238.757 98.8063C239.057 99.1066 239.658 99.1066 241.46 99.1066H251.971C254.374 99.1066 255.875 99.4069 257.077 100.608C258.578 101.81 259.779 104.212 260.38 109.017C260.981 114.123 260.68 117.126 259.179 118.928Z" fill="white"/>
<path d="M276.297 118.627C272.393 119.228 270.891 118.627 269.39 117.426C266.987 115.624 265.185 111.72 263.984 101.509C262.783 91.5984 263.383 87.0935 265.185 84.691C266.387 83.1893 267.888 82.2884 271.792 81.9881L284.106 80.4865C287.709 80.1861 289.511 80.1861 291.313 81.3874C293.416 83.1893 294.617 87.0935 295.518 93.7007L285.007 95.2022C284.406 90.9978 284.106 89.7965 283.805 89.4961C283.505 89.1958 282.904 89.1958 281.403 89.4961L276.898 90.0967C275.396 90.3971 274.796 90.3971 274.495 90.6974C274.195 90.9978 274.195 92.199 275.096 100.308C275.997 108.417 276.598 109.317 276.898 109.618C277.198 109.918 277.799 109.918 279.301 109.618L283.805 109.017C285.307 108.717 285.908 108.717 285.908 108.416C286.208 108.116 286.208 107.215 285.908 102.41L296.419 101.209C297.019 108.116 297.019 112.02 295.218 114.123C294.016 115.624 292.214 116.525 288.61 116.826L276.297 118.627Z" fill="white"/>
<path d="M336.061 103.011L339.966 102.41L340.867 110.519L322.847 112.621L321.946 104.513L325.25 104.212L324.349 97.6051L314.739 98.8064L315.639 105.414L318.943 105.113L319.844 113.222L301.825 115.324L300.924 107.215L304.828 106.615L302.425 86.4932L298.521 87.0938L297.62 78.9851L315.639 76.8828L316.541 84.9915L313.237 85.2919L313.838 91.2983L323.448 90.0971L322.847 84.0906L319.544 84.3909L318.643 76.2822L336.662 74.1799L337.563 82.2886L333.659 82.8893L336.061 103.011Z" fill="white"/>
<path d="M362.79 70.8763C366.694 70.2756 368.196 70.8763 369.697 72.0776C372.1 73.8795 373.902 77.7837 375.103 87.9947C376.305 97.9053 375.704 102.41 373.902 104.813C372.701 106.314 371.199 107.215 367.295 107.516L354.681 109.017C350.777 109.618 349.276 109.017 347.774 107.816C345.371 106.014 343.569 102.11 342.368 91.8989C341.167 81.9882 341.767 77.4834 343.569 75.0808C344.771 73.5792 346.272 72.6782 350.176 72.3779L362.79 70.8763ZM355.282 100.008C355.582 100.308 356.183 100.308 357.684 100.008L362.189 99.4069C363.691 99.1067 364.292 99.1067 364.592 98.8063C364.892 98.5059 364.892 97.3047 363.991 89.196C363.09 81.0872 362.49 80.1862 362.189 79.8859C361.889 79.5856 361.288 79.5856 359.787 79.8859L355.282 80.4866C353.78 80.7869 353.18 80.7869 352.879 81.0872C352.579 81.3876 352.579 82.5889 353.48 90.6976C354.381 98.506 354.681 99.7073 355.282 100.008Z" fill="white"/>
<path d="M399.73 66.3715C403.634 65.7709 405.135 66.3715 406.637 67.5728C409.04 69.3747 410.842 73.2789 412.043 83.4899C413.244 93.4006 412.643 97.9054 410.842 100.308C409.64 101.81 408.139 102.711 404.235 103.011L391.621 104.513C387.717 105.113 386.215 104.513 384.714 103.311C382.311 101.509 380.509 97.6051 379.308 87.3941C378.106 77.4834 378.707 72.9786 380.509 70.576C381.71 69.0744 383.212 68.1734 387.116 67.8731L399.73 66.3715ZM392.222 95.2025C392.522 95.5028 393.123 95.5028 394.624 95.2025L399.129 94.6018C400.631 94.3015 401.231 94.3015 401.531 94.0012C401.832 93.7009 401.832 92.4996 400.931 84.3909C400.03 76.2822 399.429 75.3812 399.129 75.0809C398.829 74.7805 398.228 74.7805 396.726 75.0809L392.222 75.6815C390.72 75.9818 390.119 75.9818 389.819 76.2822C389.519 76.5825 389.519 77.7838 390.42 85.8925C391.621 94.0012 391.921 94.9022 392.222 95.2025Z" fill="white"/>
<path d="M418.35 72.0773L414.446 72.6779L413.545 64.5692L432.165 62.1666L433.066 70.2753L428.861 70.876L431.264 91.298L439.373 90.397L438.472 84.3905L447.481 83.1892L449.283 97.3044L417.749 101.209L416.848 93.0999L420.753 92.4992L418.35 72.0773Z" fill="white"/>
<path d="M181.695 185.299C186.501 188.903 189.504 195.21 191.306 210.827C193.108 226.444 191.906 233.051 188.002 237.856C184.699 242.06 180.194 243.862 171.184 245.064L135.446 249.568L133.944 235.453L140.551 234.552L136.347 200.015L129.739 200.916L127.938 187.101L163.676 182.596C172.686 181.695 177.491 181.996 181.695 185.299ZM158.571 232.45L166.679 231.549C170.583 230.948 172.085 230.648 172.986 229.747C173.887 228.546 173.887 226.143 172.385 213.53C170.884 201.216 170.283 198.514 169.082 197.613C167.881 196.411 166.379 196.411 162.475 197.012L154.366 197.913L158.571 232.45Z" fill="white"/>
<path d="M200.315 241.159L198.513 227.344L203.619 226.744L212.628 182.296C213.53 177.791 215.031 175.989 219.236 175.389L231.849 173.887C236.054 173.286 237.856 174.788 239.958 178.692L259.779 219.536L264.885 218.935L266.687 232.75L236.354 236.654L234.552 223.14L240.258 222.539L238.456 217.434L222.539 219.536L221.938 224.641L227.645 224.041L229.447 237.555L200.315 241.159ZM224.641 205.721L233.651 204.52L227.945 190.705H227.044L224.641 205.721Z" fill="white"/>
<path d="M312.636 178.091L306.63 178.992L304.828 165.178L333.659 161.574L335.461 175.389L329.154 176.289L335.16 224.641L319.844 226.443C315.639 227.044 314.138 226.143 312.035 222.84L291.613 194.009H291.313L294.016 215.632L300.623 214.731L302.425 228.546L272.993 232.149L271.191 218.335L277.799 217.434L272.993 183.197L266.386 184.098L264.584 170.283L288.31 167.28C292.514 166.679 294.016 167.58 296.118 170.884L314.138 196.411H314.438L312.636 178.091Z" fill="white"/>
<path d="M364.291 220.737C357.685 221.638 354.982 221.038 352.279 218.935C348.074 215.932 345.371 209.025 343.269 191.906C341.167 174.788 342.368 167.58 345.371 163.376C347.473 160.673 349.876 159.471 356.483 158.57L377.806 155.867C383.813 154.966 387.116 155.567 389.819 157.369C393.423 160.372 395.525 166.979 397.027 178.392L379.308 180.494C378.106 173.286 377.806 171.484 376.905 170.884C376.305 170.283 375.403 170.283 373.001 170.583L365.493 171.484C362.79 171.785 361.889 172.085 361.589 172.686C360.988 173.286 360.988 175.388 362.49 188.903C364.291 202.417 364.892 204.52 365.493 204.82C366.093 205.421 366.994 205.421 369.697 205.12L377.205 204.219C379.908 203.919 380.509 203.619 380.809 203.018C381.41 202.417 381.41 200.916 380.509 192.807L398.228 190.705C399.429 202.417 399.129 209.325 396.426 212.929C394.324 215.632 391.321 216.833 385.014 217.734L364.291 220.737Z" fill="white"/>
<path d="M402.132 166.98L400.331 153.165L455.59 146.257L458.293 168.782L442.676 170.584L441.475 161.574L426.458 163.376L427.66 173.887L440.574 172.386L442.075 185.299L429.161 186.801L430.663 198.213L445.979 196.411L444.778 186.2L460.395 184.399L463.398 208.124L408.139 215.332L406.337 201.517L412.944 200.616L408.439 166.379L402.132 166.98Z" fill="white"/>
<rect x="127.275" y="155.385" width="330.655" height="13.5145" transform="rotate(-7.09446 127.275 155.385)" fill="white"/>
<path d="M84.0902 282.003L75.3808 283.204L74.1795 274.195L78.6844 273.594L79.285 278.099L83.4895 277.498L84.0902 282.003Z" fill="white"/>
<rect x="71.8285" y="263.802" width="6.36376" height="9.91066" transform="rotate(-7.09446 71.8285 263.802)" fill="white"/>
<path d="M75.0805 244.463L70.5756 245.063L69.6747 236.955L70.876 236.354C70.876 236.354 72.9782 235.153 75.9814 232.75L78.6843 236.354C76.8824 237.855 75.0805 238.756 74.1795 239.657L75.0805 244.463Z" fill="white"/>
<path d="M89.4959 225.843L86.1923 222.84C89.1956 219.236 91.8985 215.332 94.0007 211.427L97.905 213.53C95.5024 218.034 92.4991 221.939 89.4959 225.843ZM102.71 200.015L98.2053 199.114C99.1062 194.609 99.7069 190.104 99.7069 185.6H104.212C104.512 190.405 103.911 195.21 102.71 200.015ZM98.2053 171.785C97.3043 167.28 95.5024 162.775 93.7004 158.871L97.6046 156.769C99.7069 160.973 101.208 165.778 102.41 170.583L98.2053 171.785ZM86.1924 147.459C83.1891 144.155 79.8856 141.152 75.9814 138.449L78.3839 134.845C82.5885 137.548 86.1924 140.851 89.4959 144.756L86.1924 147.459Z" fill="white"/>
<path d="M63.9684 132.142C60.3646 130.64 57.962 130.34 57.962 130.34L56.4604 130.04L55.5594 121.931L60.0643 121.33L60.6649 126.436C61.8662 126.736 63.6681 127.337 65.7704 128.238L63.9684 132.142Z" fill="white"/>
<rect x="52.9069" y="111.216" width="6.36376" height="9.91066" transform="rotate(-7.09446 52.9069 111.216)" fill="white"/>
<path d="M55.8599 91.8988L51.6554 92.4994L50.4541 83.4897L59.1635 82.2885L59.7641 86.7933L55.5596 87.3939L55.8599 91.8988Z" fill="white"/>
<path d="M486.222 33.6362L473.008 35.4381L472.408 30.9333L485.622 29.1313L486.222 33.6362ZM459.494 36.9397L446.28 38.7417L445.679 34.2368L458.893 32.4349L459.494 36.9397ZM432.765 40.5436L419.551 42.3456L418.95 37.8407L432.164 36.0388L432.765 40.5436ZM406.036 43.8472L392.822 45.6491L392.222 41.1443L405.436 39.3423L406.036 43.8472ZM379.308 47.1507L366.093 48.9527L365.493 44.4478L378.707 42.6459L379.308 47.1507ZM352.879 50.4543L339.665 52.2562L339.064 47.7514L352.278 45.9494L352.879 50.4543ZM326.15 53.7578L312.936 55.5598L312.336 51.0549L325.55 49.253L326.15 53.7578ZM299.422 57.0614L286.207 58.8633L285.607 54.3585L298.821 52.5565L299.422 57.0614ZM272.993 60.365L259.779 62.1669L259.178 57.662L272.393 55.8601L272.993 60.365ZM246.265 63.6685L233.05 65.4704L232.45 60.9656L245.664 59.1636L246.265 63.6685ZM219.836 66.9721L206.622 68.774L205.721 64.2691L218.935 62.4672L219.836 66.9721ZM193.107 70.2756L179.893 71.7772L179.293 67.2724L192.507 65.4704L193.107 70.2756ZM166.379 73.5792L153.164 75.3811L152.564 70.8762L165.778 69.0743L166.379 73.5792ZM139.65 76.8827L126.436 78.6847L125.835 74.1798L139.049 72.3779L139.65 76.8827ZM113.222 80.1863L100.007 81.9882L99.4066 77.4834L112.621 75.6814L113.222 80.1863ZM86.4928 83.4898L73.2786 85.2918L72.6779 80.7869L85.8921 78.985L86.4928 83.4898Z" fill="white"/>
<path d="M508.146 35.438L503.641 36.0386L503.041 31.5338L498.536 32.1345L498.236 27.6296L506.945 26.7286L508.146 35.438Z" fill="white"/>
<rect x="504.843" y="54.7896" width="6.36376" height="9.91066" transform="rotate(-7.09446 504.843 54.7896)" fill="white"/>
<path d="M506.044 76.8826L503.341 73.2787C505.143 72.0774 506.945 70.8761 507.846 70.2755L507.245 65.17L511.75 64.5693L512.651 72.6781L511.149 73.2787C511.149 73.8794 509.047 74.7803 506.044 76.8826Z" fill="white"/>
<path d="M503.941 174.187C499.737 171.184 496.133 167.88 493.13 164.276L496.434 161.273C499.437 164.577 502.74 167.58 506.644 170.283L503.941 174.187ZM484.721 152.264C482.619 148.059 480.817 143.254 479.615 138.449L484.12 137.548C485.322 142.053 486.823 146.257 488.925 150.462L484.721 152.264ZM482.318 123.733H477.814C477.814 118.627 478.114 113.822 479.315 109.017L483.82 109.918C482.619 114.423 482.318 119.228 482.318 123.733ZM488.024 97.3044L484.12 95.2022C486.223 90.9976 489.226 86.7931 492.529 82.8889L495.833 85.8922C492.829 89.496 490.127 93.4002 488.024 97.3044Z" fill="white"/>
<path d="M527.066 188.002L522.561 188.602L521.961 183.497C520.76 183.197 518.958 182.596 516.855 181.395L518.657 177.19C522.261 178.692 524.664 179.292 524.664 179.292L526.166 179.593L527.066 188.002Z" fill="white"/>
<rect x="523.795" y="207.676" width="6.36376" height="9.91066" transform="rotate(-7.09446 523.795 207.676)" fill="white"/>
<path d="M531.872 226.143L522.862 227.344L522.261 222.839L526.766 222.239L526.166 218.034L530.67 217.434L531.872 226.143Z" fill="white"/>
<path d="M509.648 229.146L496.434 230.948L495.833 226.443L509.047 224.641L509.648 229.146ZM482.919 232.45L469.705 234.252L469.104 229.747L482.318 227.945L482.919 232.45ZM456.491 235.753L443.276 237.555L442.676 233.051L455.89 231.249L456.491 235.753ZM429.762 239.057L416.548 240.859L415.947 236.354L429.161 234.552L429.762 239.057ZM403.033 242.361L389.819 244.162L389.218 239.658L402.433 237.856L403.033 242.361ZM376.304 245.664L363.09 247.466L362.49 242.961L375.704 241.159L376.304 245.664ZM349.876 248.968L336.662 250.77L336.061 246.265L349.275 244.463L349.876 248.968ZM323.147 252.271L309.933 254.073L309.332 249.568L322.547 247.766L323.147 252.271ZM296.419 255.575L283.204 257.377L282.604 252.872L295.818 251.07L296.419 255.575ZM269.99 258.878L256.776 260.68L256.175 256.175L269.389 254.373L269.99 258.878ZM243.261 262.182L230.047 263.984L229.447 259.479L242.661 257.677L243.261 262.182ZM216.533 265.485L203.318 267.287L202.718 262.782L215.932 260.981L216.533 265.485ZM190.104 268.789L176.89 270.591L176.289 266.086L189.504 264.284L190.104 268.789ZM163.376 272.092L150.161 273.894L149.561 269.39L162.775 267.588L163.376 272.092ZM136.647 275.396L123.433 277.198L122.832 272.693L136.046 270.891L136.647 275.396ZM110.218 278.7L96.7038 280.502L96.1031 275.997L109.317 274.195L110.218 278.7Z" fill="white"/>
<path d="M18.3197 95.5027L9.91065 96.704L19.521 174.488C36.0387 174.488 50.7546 185.299 55.5597 201.216C55.5597 201.517 54.0581 203.018 52.2562 204.22C50.1539 205.421 47.7513 206.022 47.7513 206.022C44.7481 191.906 31.2336 181.996 16.5178 183.798L11.7126 184.098L0 88.5953L17.4187 86.493L18.3197 95.5027ZM534.274 258.578L536.076 272.693L30.6329 335.761L18.9203 240.559L23.4252 239.958C27.0291 239.658 32.1346 237.856 35.1378 236.354L36.6394 245.364C34.2368 246.565 31.8342 247.466 29.1313 248.067L38.7417 325.85L526.466 265.185L525.865 260.08L534.274 258.578Z" fill="white"/>
</svg>
